<?xml version="1.0" encoding="utf-8"?>

<!-- Uploaded to: SVG Repo, www.svgrepo.com, Generator: SVG Repo Mixer Tools -->
<svg
      width="32"
      height="32"
      viewBox="0 0 32 32"
      fill="none"
      xmlns="http://www.w3.org/2000/svg"
    >
      <g clipPath="url(#clip0_50_304)">
        <path
          d="M9.2655 14.6612C9.85645 13.1275 12.1231 11.551 14.3282 11.14L28.076 8.57755C30.2811 8.16654 31.5897 9.07665 30.9987 10.6104L27.3145 20.1721C26.7235 21.7058 24.4568 23.2823 22.2517 23.6933L8.50396 26.2558C6.29884 26.6668 4.99029 25.7567 5.58124 24.223L9.2655 14.6612Z"
          fill="#A185DE"
        />
        <path
          d="M3.75427 10.8279C4.34522 9.29418 6.61189 7.71768 8.81701 7.30666L22.5648 4.74421C24.7699 4.3332 26.0785 5.24331 25.4875 6.77701L21.8032 16.3388C21.2123 17.8725 18.9456 19.449 16.7405 19.86L2.99274 22.4224C0.78761 22.8335 -0.520942 21.9233 0.0700095 20.3897L3.75427 10.8279Z"
          fill="#7F56D9"
        />
        <path
          d="M4.3902 17.6364L13.9281 15.8584"
          stroke="#9E77ED"
          strokeLinecap="round"
        />
      </g>
      <defs>
        <clipPath id="clip0_50_304">
          <rect width="32" height="32" fill="white" />
        </clipPath>
      </defs>
    </svg>